<?xml version="1.0" standalone="no"?>
 <!DOCTYPE svg PUBLIC "-//W3C//DTD SVG 1.1//EN" 
 "http://www.w3.org/Graphics/SVG/1.1/DTD/svg11.dtd"> 
<svg xmlns="http://www.w3.org/2000/svg" version="1.1" 
    width="29.7002cm" height="21.0007cm" viewBox="0 0 116930 82680 ">
<title>SVG Picture created as Risalpumpki-F.SilkS.svg date 2018/04/10 15:17:45 </title>
  <desc>Picture generated by PCBNEW </desc>
<g style="fill:#000000; fill-opacity:1;stroke:#000000; stroke-opacity:1;
stroke-linecap:round; stroke-linejoin:round; "
 transform="translate(0 0) scale(1 1)">
</g>
<g style="fill:#000000; fill-opacity:0.0; 
stroke:#000000; stroke-width:-0.000393701; stroke-opacity:1; 
stroke-linecap:round; stroke-linejoin:round;">
</g>
<g style="fill:#000000; fill-opacity:0.0; 
stroke:#000000; stroke-width:39.3701; stroke-opacity:1; 
stroke-linecap:round; stroke-linejoin:round;">
</g>
<g style="fill:#000000; fill-opacity:0.0; 
stroke:#000000; stroke-width:59.0551; stroke-opacity:1; 
stroke-linecap:round; stroke-linejoin:round;">
<rect x="69685.9" y="65357.2" width="42519.7" height="12598.4" rx="0" />
</g>
<g style="fill:#000000; fill-opacity:0.0; 
stroke:#000000; stroke-width:39.3701; stroke-opacity:1; 
stroke-linecap:round; stroke-linejoin:round;">
</g>
<g style="fill:#000000; fill-opacity:0.0; 
stroke:#000000; stroke-width:59.0551; stroke-opacity:1; 
stroke-linecap:round; stroke-linejoin:round;">
<rect x="3937.01" y="3937.01" width="109056" height="74806" rx="0" />
</g>
<g style="fill:#000000; fill-opacity:0.0; 
stroke:#000000; stroke-width:39.3701; stroke-opacity:1; 
stroke-linecap:round; stroke-linejoin:round;">
</g>
<g style="fill:#000000; fill-opacity:0.0; 
stroke:#000000; stroke-width:59.0551; stroke-opacity:1; 
stroke-linecap:round; stroke-linejoin:round;">
<rect x="4724.41" y="4724.41" width="107481" height="73231.2" rx="0" />
</g>
<g style="fill:#000000; fill-opacity:0.0; 
stroke:#000000; stroke-width:39.3701; stroke-opacity:1; 
stroke-linecap:round; stroke-linejoin:round;">
</g>
<g style="fill:#000000; fill-opacity:0.0; 
stroke:#000000; stroke-width:59.0551; stroke-opacity:1; 
stroke-linecap:round; stroke-linejoin:round;">
<path d="M23622 4724
L23622 3937
" />
</g>
<g style="fill:#000000; fill-opacity:0.0; 
stroke:#000000; stroke-width:39.3701; stroke-opacity:1; 
stroke-linecap:round; stroke-linejoin:round;">
</g>
<g style="fill:#000000; fill-opacity:0.0; 
stroke:#000000; stroke-width:59.0551; stroke-opacity:1; 
stroke-linecap:round; stroke-linejoin:round;">
<path d="M43307 4724
L43307 3937
" />
</g>
<g style="fill:#000000; fill-opacity:0.0; 
stroke:#000000; stroke-width:39.3701; stroke-opacity:1; 
stroke-linecap:round; stroke-linejoin:round;">
</g>
<g style="fill:#000000; fill-opacity:0.0; 
stroke:#000000; stroke-width:59.0551; stroke-opacity:1; 
stroke-linecap:round; stroke-linejoin:round;">
<path d="M62992 4724
L62992 3937
" />
</g>
<g style="fill:#000000; fill-opacity:0.0; 
stroke:#000000; stroke-width:39.3701; stroke-opacity:1; 
stroke-linecap:round; stroke-linejoin:round;">
</g>
<g style="fill:#000000; fill-opacity:0.0; 
stroke:#000000; stroke-width:59.0551; stroke-opacity:1; 
stroke-linecap:round; stroke-linejoin:round;">
<path d="M82677 4724
L82677 3937
" />
</g>
<g style="fill:#000000; fill-opacity:0.0; 
stroke:#000000; stroke-width:39.3701; stroke-opacity:1; 
stroke-linecap:round; stroke-linejoin:round;">
</g>
<g style="fill:#000000; fill-opacity:0.0; 
stroke:#000000; stroke-width:59.0551; stroke-opacity:1; 
stroke-linecap:round; stroke-linejoin:round;">
<path d="M102362 4724
L102362 3937
" />
</g>
<g style="fill:#000000; fill-opacity:0.0; 
stroke:#000000; stroke-width:39.3701; stroke-opacity:1; 
stroke-linecap:round; stroke-linejoin:round;">
</g>
<g style="fill:#000000; fill-opacity:0.0; 
stroke:#000000; stroke-width:59.0551; stroke-opacity:1; 
stroke-linecap:round; stroke-linejoin:round;">
<path d="M14169 4562
L13877 4562
" />
<path d="M14023 4562
L14023 4050
L13974 4123
L13925 4172
L13877 4196
" />
</g>
<g style="fill:#000000; fill-opacity:0.0; 
stroke:#000000; stroke-width:39.3701; stroke-opacity:1; 
stroke-linecap:round; stroke-linejoin:round;">
</g>
<g style="fill:#000000; fill-opacity:0.0; 
stroke:#000000; stroke-width:59.0551; stroke-opacity:1; 
stroke-linecap:round; stroke-linejoin:round;">
<path d="M33562 4099
L33586 4074
L33635 4050
L33757 4050
L33805 4074
L33830 4099
L33854 4147
L33854 4196
L33830 4269
L33537 4562
L33854 4562
" />
</g>
<g style="fill:#000000; fill-opacity:0.0; 
stroke:#000000; stroke-width:39.3701; stroke-opacity:1; 
stroke-linecap:round; stroke-linejoin:round;">
</g>
<g style="fill:#000000; fill-opacity:0.0; 
stroke:#000000; stroke-width:59.0551; stroke-opacity:1; 
stroke-linecap:round; stroke-linejoin:round;">
<path d="M53222 4050
L53539 4050
L53368 4245
L53442 4245
L53490 4269
L53515 4294
L53539 4342
L53539 4464
L53515 4513
L53490 4537
L53442 4562
L53295 4562
L53247 4537
L53222 4513
" />
</g>
<g style="fill:#000000; fill-opacity:0.0; 
stroke:#000000; stroke-width:39.3701; stroke-opacity:1; 
stroke-linecap:round; stroke-linejoin:round;">
</g>
<g style="fill:#000000; fill-opacity:0.0; 
stroke:#000000; stroke-width:59.0551; stroke-opacity:1; 
stroke-linecap:round; stroke-linejoin:round;">
<path d="M73175 4221
L73175 4562
" />
<path d="M73053 4026
L72932 4391
L73248 4391
" />
</g>
<g style="fill:#000000; fill-opacity:0.0; 
stroke:#000000; stroke-width:39.3701; stroke-opacity:1; 
stroke-linecap:round; stroke-linejoin:round;">
</g>
<g style="fill:#000000; fill-opacity:0.0; 
stroke:#000000; stroke-width:59.0551; stroke-opacity:1; 
stroke-linecap:round; stroke-linejoin:round;">
<path d="M92885 4050
L92641 4050
L92617 4294
L92641 4269
L92690 4245
L92812 4245
L92860 4269
L92885 4294
L92909 4342
L92909 4464
L92885 4513
L92860 4537
L92812 4562
L92690 4562
L92641 4537
L92617 4513
" />
</g>
<g style="fill:#000000; fill-opacity:0.0; 
stroke:#000000; stroke-width:39.3701; stroke-opacity:1; 
stroke-linecap:round; stroke-linejoin:round;">
</g>
<g style="fill:#000000; fill-opacity:0.0; 
stroke:#000000; stroke-width:59.0551; stroke-opacity:1; 
stroke-linecap:round; stroke-linejoin:round;">
<path d="M112545 4050
L112448 4050
L112399 4074
L112375 4099
L112326 4172
L112302 4269
L112302 4464
L112326 4513
L112350 4537
L112399 4562
L112497 4562
L112545 4537
L112570 4513
L112594 4464
L112594 4342
L112570 4294
L112545 4269
L112497 4245
L112399 4245
L112350 4269
L112326 4294
L112302 4342
" />
</g>
<g style="fill:#000000; fill-opacity:0.0; 
stroke:#000000; stroke-width:39.3701; stroke-opacity:1; 
stroke-linecap:round; stroke-linejoin:round;">
</g>
<g style="fill:#000000; fill-opacity:0.0; 
stroke:#000000; stroke-width:59.0551; stroke-opacity:1; 
stroke-linecap:round; stroke-linejoin:round;">
<path d="M23622 77955
L23622 78742
" />
</g>
<g style="fill:#000000; fill-opacity:0.0; 
stroke:#000000; stroke-width:39.3701; stroke-opacity:1; 
stroke-linecap:round; stroke-linejoin:round;">
</g>
<g style="fill:#000000; fill-opacity:0.0; 
stroke:#000000; stroke-width:59.0551; stroke-opacity:1; 
stroke-linecap:round; stroke-linejoin:round;">
<path d="M43307 77955
L43307 78742
" />
</g>
<g style="fill:#000000; fill-opacity:0.0; 
stroke:#000000; stroke-width:39.3701; stroke-opacity:1; 
stroke-linecap:round; stroke-linejoin:round;">
</g>
<g style="fill:#000000; fill-opacity:0.0; 
stroke:#000000; stroke-width:59.0551; stroke-opacity:1; 
stroke-linecap:round; stroke-linejoin:round;">
<path d="M62992 77955
L62992 78742
" />
</g>
<g style="fill:#000000; fill-opacity:0.0; 
stroke:#000000; stroke-width:39.3701; stroke-opacity:1; 
stroke-linecap:round; stroke-linejoin:round;">
</g>
<g style="fill:#000000; fill-opacity:0.0; 
stroke:#000000; stroke-width:59.0551; stroke-opacity:1; 
stroke-linecap:round; stroke-linejoin:round;">
<path d="M82677 77955
L82677 78742
" />
</g>
<g style="fill:#000000; fill-opacity:0.0; 
stroke:#000000; stroke-width:39.3701; stroke-opacity:1; 
stroke-linecap:round; stroke-linejoin:round;">
</g>
<g style="fill:#000000; fill-opacity:0.0; 
stroke:#000000; stroke-width:59.0551; stroke-opacity:1; 
stroke-linecap:round; stroke-linejoin:round;">
<path d="M102362 77955
L102362 78742
" />
</g>
<g style="fill:#000000; fill-opacity:0.0; 
stroke:#000000; stroke-width:39.3701; stroke-opacity:1; 
stroke-linecap:round; stroke-linejoin:round;">
</g>
<g style="fill:#000000; fill-opacity:0.0; 
stroke:#000000; stroke-width:59.0551; stroke-opacity:1; 
stroke-linecap:round; stroke-linejoin:round;">
<path d="M14169 78580
L13877 78580
" />
<path d="M14023 78580
L14023 78069
L13974 78142
L13925 78190
L13877 78215
" />
</g>
<g style="fill:#000000; fill-opacity:0.0; 
stroke:#000000; stroke-width:39.3701; stroke-opacity:1; 
stroke-linecap:round; stroke-linejoin:round;">
</g>
<g style="fill:#000000; fill-opacity:0.0; 
stroke:#000000; stroke-width:59.0551; stroke-opacity:1; 
stroke-linecap:round; stroke-linejoin:round;">
<path d="M33562 78117
L33586 78093
L33635 78069
L33757 78069
L33805 78093
L33830 78117
L33854 78166
L33854 78215
L33830 78288
L33537 78580
L33854 78580
" />
</g>
<g style="fill:#000000; fill-opacity:0.0; 
stroke:#000000; stroke-width:39.3701; stroke-opacity:1; 
stroke-linecap:round; stroke-linejoin:round;">
</g>
<g style="fill:#000000; fill-opacity:0.0; 
stroke:#000000; stroke-width:59.0551; stroke-opacity:1; 
stroke-linecap:round; stroke-linejoin:round;">
<path d="M53222 78069
L53539 78069
L53368 78263
L53442 78263
L53490 78288
L53515 78312
L53539 78361
L53539 78483
L53515 78532
L53490 78556
L53442 78580
L53295 78580
L53247 78556
L53222 78532
" />
</g>
<g style="fill:#000000; fill-opacity:0.0; 
stroke:#000000; stroke-width:39.3701; stroke-opacity:1; 
stroke-linecap:round; stroke-linejoin:round;">
</g>
<g style="fill:#000000; fill-opacity:0.0; 
stroke:#000000; stroke-width:59.0551; stroke-opacity:1; 
stroke-linecap:round; stroke-linejoin:round;">
<path d="M73175 78239
L73175 78580
" />
<path d="M73053 78044
L72932 78410
L73248 78410
" />
</g>
<g style="fill:#000000; fill-opacity:0.0; 
stroke:#000000; stroke-width:39.3701; stroke-opacity:1; 
stroke-linecap:round; stroke-linejoin:round;">
</g>
<g style="fill:#000000; fill-opacity:0.0; 
stroke:#000000; stroke-width:59.0551; stroke-opacity:1; 
stroke-linecap:round; stroke-linejoin:round;">
<path d="M92885 78069
L92641 78069
L92617 78312
L92641 78288
L92690 78263
L92812 78263
L92860 78288
L92885 78312
L92909 78361
L92909 78483
L92885 78532
L92860 78556
L92812 78580
L92690 78580
L92641 78556
L92617 78532
" />
</g>
<g style="fill:#000000; fill-opacity:0.0; 
stroke:#000000; stroke-width:39.3701; stroke-opacity:1; 
stroke-linecap:round; stroke-linejoin:round;">
</g>
<g style="fill:#000000; fill-opacity:0.0; 
stroke:#000000; stroke-width:59.0551; stroke-opacity:1; 
stroke-linecap:round; stroke-linejoin:round;">
<path d="M112545 78069
L112448 78069
L112399 78093
L112375 78117
L112326 78190
L112302 78288
L112302 78483
L112326 78532
L112350 78556
L112399 78580
L112497 78580
L112545 78556
L112570 78532
L112594 78483
L112594 78361
L112570 78312
L112545 78288
L112497 78263
L112399 78263
L112350 78288
L112326 78312
L112302 78361
" />
</g>
<g style="fill:#000000; fill-opacity:0.0; 
stroke:#000000; stroke-width:39.3701; stroke-opacity:1; 
stroke-linecap:round; stroke-linejoin:round;">
</g>
<g style="fill:#000000; fill-opacity:0.0; 
stroke:#000000; stroke-width:59.0551; stroke-opacity:1; 
stroke-linecap:round; stroke-linejoin:round;">
<path d="M3937 23622
L4724 23622
" />
</g>
<g style="fill:#000000; fill-opacity:0.0; 
stroke:#000000; stroke-width:39.3701; stroke-opacity:1; 
stroke-linecap:round; stroke-linejoin:round;">
</g>
<g style="fill:#000000; fill-opacity:0.0; 
stroke:#000000; stroke-width:59.0551; stroke-opacity:1; 
stroke-linecap:round; stroke-linejoin:round;">
<path d="M3937 43307
L4724 43307
" />
</g>
<g style="fill:#000000; fill-opacity:0.0; 
stroke:#000000; stroke-width:39.3701; stroke-opacity:1; 
stroke-linecap:round; stroke-linejoin:round;">
</g>
<g style="fill:#000000; fill-opacity:0.0; 
stroke:#000000; stroke-width:59.0551; stroke-opacity:1; 
stroke-linecap:round; stroke-linejoin:round;">
<path d="M3937 62992
L4724 62992
" />
</g>
<g style="fill:#000000; fill-opacity:0.0; 
stroke:#000000; stroke-width:39.3701; stroke-opacity:1; 
stroke-linecap:round; stroke-linejoin:round;">
</g>
<g style="fill:#000000; fill-opacity:0.0; 
stroke:#000000; stroke-width:59.0551; stroke-opacity:1; 
stroke-linecap:round; stroke-linejoin:round;">
<path d="M4208 13864
L4452 13864
" />
<path d="M4160 14011
L4330 13499
L4501 14011
" />
</g>
<g style="fill:#000000; fill-opacity:0.0; 
stroke:#000000; stroke-width:39.3701; stroke-opacity:1; 
stroke-linecap:round; stroke-linejoin:round;">
</g>
<g style="fill:#000000; fill-opacity:0.0; 
stroke:#000000; stroke-width:59.0551; stroke-opacity:1; 
stroke-linecap:round; stroke-linejoin:round;">
<path d="M4367 33428
L4440 33452
L4464 33476
L4489 33525
L4489 33598
L4464 33647
L4440 33671
L4391 33696
L4196 33696
L4196 33184
L4367 33184
L4416 33208
L4440 33233
L4464 33281
L4464 33330
L4440 33379
L4416 33403
L4367 33428
L4196 33428
" />
</g>
<g style="fill:#000000; fill-opacity:0.0; 
stroke:#000000; stroke-width:39.3701; stroke-opacity:1; 
stroke-linecap:round; stroke-linejoin:round;">
</g>
<g style="fill:#000000; fill-opacity:0.0; 
stroke:#000000; stroke-width:59.0551; stroke-opacity:1; 
stroke-linecap:round; stroke-linejoin:round;">
<path d="M4489 53332
L4464 53356
L4391 53381
L4342 53381
L4269 53356
L4221 53308
L4196 53259
L4172 53161
L4172 53088
L4196 52991
L4221 52942
L4269 52893
L4342 52869
L4391 52869
L4464 52893
L4489 52918
" />
</g>
<g style="fill:#000000; fill-opacity:0.0; 
stroke:#000000; stroke-width:39.3701; stroke-opacity:1; 
stroke-linecap:round; stroke-linejoin:round;">
</g>
<g style="fill:#000000; fill-opacity:0.0; 
stroke:#000000; stroke-width:59.0551; stroke-opacity:1; 
stroke-linecap:round; stroke-linejoin:round;">
<path d="M4196 73066
L4196 72554
L4318 72554
L4391 72578
L4440 72627
L4464 72676
L4489 72773
L4489 72846
L4464 72944
L4440 72993
L4391 73041
L4318 73066
L4196 73066
" />
</g>
<g style="fill:#000000; fill-opacity:0.0; 
stroke:#000000; stroke-width:39.3701; stroke-opacity:1; 
stroke-linecap:round; stroke-linejoin:round;">
</g>
<g style="fill:#000000; fill-opacity:0.0; 
stroke:#000000; stroke-width:59.0551; stroke-opacity:1; 
stroke-linecap:round; stroke-linejoin:round;">
<path d="M112992 23622
L112205 23622
" />
</g>
<g style="fill:#000000; fill-opacity:0.0; 
stroke:#000000; stroke-width:39.3701; stroke-opacity:1; 
stroke-linecap:round; stroke-linejoin:round;">
</g>
<g style="fill:#000000; fill-opacity:0.0; 
stroke:#000000; stroke-width:59.0551; stroke-opacity:1; 
stroke-linecap:round; stroke-linejoin:round;">
<path d="M112992 43307
L112205 43307
" />
</g>
<g style="fill:#000000; fill-opacity:0.0; 
stroke:#000000; stroke-width:39.3701; stroke-opacity:1; 
stroke-linecap:round; stroke-linejoin:round;">
</g>
<g style="fill:#000000; fill-opacity:0.0; 
stroke:#000000; stroke-width:59.0551; stroke-opacity:1; 
stroke-linecap:round; stroke-linejoin:round;">
<path d="M112992 62992
L112205 62992
" />
</g>
<g style="fill:#000000; fill-opacity:0.0; 
stroke:#000000; stroke-width:39.3701; stroke-opacity:1; 
stroke-linecap:round; stroke-linejoin:round;">
</g>
<g style="fill:#000000; fill-opacity:0.0; 
stroke:#000000; stroke-width:59.0551; stroke-opacity:1; 
stroke-linecap:round; stroke-linejoin:round;">
<path d="M112477 13864
L112721 13864
" />
<path d="M112428 14011
L112599 13499
L112769 14011
" />
</g>
<g style="fill:#000000; fill-opacity:0.0; 
stroke:#000000; stroke-width:39.3701; stroke-opacity:1; 
stroke-linecap:round; stroke-linejoin:round;">
</g>
<g style="fill:#000000; fill-opacity:0.0; 
stroke:#000000; stroke-width:59.0551; stroke-opacity:1; 
stroke-linecap:round; stroke-linejoin:round;">
<path d="M112635 33428
L112708 33452
L112733 33476
L112757 33525
L112757 33598
L112733 33647
L112708 33671
L112660 33696
L112465 33696
L112465 33184
L112635 33184
L112684 33208
L112708 33233
L112733 33281
L112733 33330
L112708 33379
L112684 33403
L112635 33428
L112465 33428
" />
</g>
<g style="fill:#000000; fill-opacity:0.0; 
stroke:#000000; stroke-width:39.3701; stroke-opacity:1; 
stroke-linecap:round; stroke-linejoin:round;">
</g>
<g style="fill:#000000; fill-opacity:0.0; 
stroke:#000000; stroke-width:59.0551; stroke-opacity:1; 
stroke-linecap:round; stroke-linejoin:round;">
<path d="M112757 53332
L112733 53356
L112660 53381
L112611 53381
L112538 53356
L112489 53308
L112465 53259
L112440 53161
L112440 53088
L112465 52991
L112489 52942
L112538 52893
L112611 52869
L112660 52869
L112733 52893
L112757 52918
" />
</g>
<g style="fill:#000000; fill-opacity:0.0; 
stroke:#000000; stroke-width:39.3701; stroke-opacity:1; 
stroke-linecap:round; stroke-linejoin:round;">
</g>
<g style="fill:#000000; fill-opacity:0.0; 
stroke:#000000; stroke-width:59.0551; stroke-opacity:1; 
stroke-linecap:round; stroke-linejoin:round;">
<path d="M112465 73066
L112465 72554
L112587 72554
L112660 72578
L112708 72627
L112733 72676
L112757 72773
L112757 72846
L112733 72944
L112708 72993
L112660 73041
L112587 73066
L112465 73066
" />
</g>
<g style="fill:#000000; fill-opacity:0.0; 
stroke:#000000; stroke-width:39.3701; stroke-opacity:1; 
stroke-linecap:round; stroke-linejoin:round;">
</g>
<g style="fill:#000000; fill-opacity:0.0; 
stroke:#000000; stroke-width:59.0551; stroke-opacity:1; 
stroke-linecap:round; stroke-linejoin:round;">
<path d="M78881 76293
L78881 75703
L79022 75703
L79106 75731
L79162 75787
L79190 75843
L79219 75956
L79219 76040
L79190 76153
L79162 76209
L79106 76265
L79022 76293
L78881 76293
" />
<path d="M79725 76293
L79725 75984
L79697 75928
L79640 75899
L79528 75899
L79472 75928
" />
<path d="M79725 76265
L79669 76293
L79528 76293
L79472 76265
L79444 76209
L79444 76153
L79472 76096
L79528 76068
L79669 76068
L79725 76040
" />
<path d="M79922 75899
L80147 75899
" />
<path d="M80006 75703
L80006 76209
L80034 76265
L80090 76293
L80147 76293
" />
<path d="M80568 76265
L80512 76293
L80400 76293
L80343 76265
L80315 76209
L80315 75984
L80343 75928
L80400 75899
L80512 75899
L80568 75928
L80597 75984
L80597 76040
L80315 76096
" />
<path d="M80850 76237
L80878 76265
L80850 76293
L80822 76265
L80850 76237
L80850 76293
" />
<path d="M80850 75928
L80878 75956
L80850 75984
L80822 75956
L80850 75928
L80850 75984
" />
</g>
<g style="fill:#000000; fill-opacity:0.0; 
stroke:#000000; stroke-width:39.3701; stroke-opacity:1; 
stroke-linecap:round; stroke-linejoin:round;">
</g>
<g style="fill:#000000; fill-opacity:0.0; 
stroke:#000000; stroke-width:59.0551; stroke-opacity:1; 
stroke-linecap:round; stroke-linejoin:round;">
<path d="M69685 76577
L112205 76577
" />
</g>
<g style="fill:#000000; fill-opacity:0.0; 
stroke:#000000; stroke-width:39.3701; stroke-opacity:1; 
stroke-linecap:round; stroke-linejoin:round;">
</g>
<g style="fill:#000000; fill-opacity:0.0; 
stroke:#000000; stroke-width:59.0551; stroke-opacity:1; 
stroke-linecap:round; stroke-linejoin:round;">
<path d="M70220 77395
L70220 76805
" />
<path d="M70557 77395
L70304 77058
" />
<path d="M70557 76805
L70220 77142
" />
<path d="M70810 77395
L70810 77002
" />
<path d="M70810 76805
L70782 76833
L70810 76861
L70838 76833
L70810 76805
L70810 76861
" />
<path d="M71429 77339
L71401 77367
L71316 77395
L71260 77395
L71176 77367
L71120 77311
L71091 77255
L71063 77142
L71063 77058
L71091 76946
L71120 76889
L71176 76833
L71260 76805
L71316 76805
L71401 76833
L71429 76861
" />
<path d="M71935 77395
L71935 77086
L71907 77030
L71851 77002
L71738 77002
L71682 77030
" />
<path d="M71935 77367
L71879 77395
L71738 77395
L71682 77367
L71654 77311
L71654 77255
L71682 77199
L71738 77171
L71879 77171
L71935 77142
" />
<path d="M72469 77395
L72469 76805
" />
<path d="M72469 77367
L72413 77395
L72301 77395
L72244 77367
L72216 77339
L72188 77283
L72188 77114
L72216 77058
L72244 77030
L72301 77002
L72413 77002
L72469 77030
" />
<path d="M73201 77086
L73397 77086
" />
<path d="M73482 77395
L73201 77395
L73201 76805
L73482 76805
" />
<path d="M73735 77339
L73763 77367
L73735 77395
L73707 77367
L73735 77339
L73735 77395
" />
<path d="M74016 77395
L74016 76805
L74157 76805
L74241 76833
L74297 76889
L74325 76946
L74354 77058
L74354 77142
L74325 77255
L74297 77311
L74241 77367
L74157 77395
L74016 77395
" />
<path d="M74607 77339
L74635 77367
L74607 77395
L74579 77367
L74607 77339
L74607 77395
" />
<path d="M74860 77227
L75141 77227
" />
<path d="M74804 77395
L75000 76805
L75197 77395
" />
<path d="M75394 77339
L75422 77367
L75394 77395
L75366 77367
L75394 77339
L75394 77395
" />
<path d="M76575 77395
L76575 76805
" />
<path d="M76631 77171
L76800 77395
" />
<path d="M76800 77002
L76575 77227
" />
<path d="M77053 77395
L77053 77002
" />
<path d="M77053 76805
L77025 76833
L77053 76861
L77081 76833
L77053 76805
L77053 76861
" />
<path d="M77588 77367
L77531 77395
L77419 77395
L77363 77367
L77334 77339
L77306 77283
L77306 77114
L77334 77058
L77363 77030
L77419 77002
L77531 77002
L77588 77030
" />
<path d="M78094 77395
L78094 77086
L78066 77030
L78009 77002
L77897 77002
L77841 77030
" />
<path d="M78094 77367
L78037 77395
L77897 77395
L77841 77367
L77813 77311
L77813 77255
L77841 77199
L77897 77171
L78037 77171
L78094 77142
" />
<path d="M78628 77395
L78628 76805
" />
<path d="M78628 77367
L78572 77395
L78459 77395
L78403 77367
L78375 77339
L78347 77283
L78347 77114
L78375 77058
L78403 77030
L78459 77002
L78572 77002
L78628 77030
" />
<path d="M79612 77002
L79612 77395
" />
<path d="M79472 76777
L79331 77199
L79697 77199
" />
<path d="M79922 77339
L79950 77367
L79922 77395
L79894 77367
L79922 77339
L79922 77395
" />
<path d="M80315 76805
L80372 76805
L80428 76833
L80456 76861
L80484 76917
L80512 77030
L80512 77171
L80484 77283
L80456 77339
L80428 77367
L80372 77395
L80315 77395
L80259 77367
L80231 77339
L80203 77283
L80175 77171
L80175 77030
L80203 76917
L80231 76861
L80259 76833
L80315 76805
" />
<path d="M80765 77339
L80793 77367
L80765 77395
L80737 77367
L80765 77339
L80765 77395
" />
<path d="M81300 76805
L81187 76805
L81131 76833
L81103 76861
L81046 76946
L81018 77058
L81018 77283
L81046 77339
L81075 77367
L81131 77395
L81243 77395
L81300 77367
L81328 77339
L81356 77283
L81356 77142
L81328 77086
L81300 77058
L81243 77030
L81131 77030
L81075 77058
L81046 77086
L81018 77142
" />
<path d="M81609 77171
L82059 77171
" />
<path d="M81834 77395
L81834 76946
" />
<path d="M82593 77395
L82593 76805
" />
<path d="M82593 77367
L82537 77395
L82424 77395
L82368 77367
L82340 77339
L82312 77283
L82312 77114
L82340 77058
L82368 77030
L82424 77002
L82537 77002
L82593 77030
" />
<path d="M82790 77002
L83015 77002
" />
<path d="M82874 77395
L82874 76889
L82903 76833
L82959 76805
L83015 76805
" />
<path d="M83184 77367
L83240 77395
L83352 77395
L83409 77367
L83437 77311
L83437 77283
L83409 77227
L83352 77199
L83268 77199
L83212 77171
L83184 77114
L83184 77086
L83212 77030
L83268 77002
L83352 77002
L83409 77030
" />
<path d="M83943 77002
L83943 77480
L83915 77536
L83887 77564
L83831 77592
L83746 77592
L83690 77564
" />
<path d="M83943 77367
L83887 77395
L83774 77395
L83718 77367
L83690 77339
L83662 77283
L83662 77114
L83690 77058
L83718 77030
L83774 77002
L83887 77002
L83943 77030
" />
<path d="M84534 77395
L84196 77395
" />
<path d="M84365 77395
L84365 76805
L84309 76889
L84252 76946
L84196 76974
" />
<path d="M84787 77171
L85237 77171
" />
<path d="M85827 77395
L85490 77395
" />
<path d="M85658 77395
L85658 76805
L85602 76889
L85546 76946
L85490 76974
" />
</g>
<g style="fill:#000000; fill-opacity:0.0; 
stroke:#000000; stroke-width:39.3701; stroke-opacity:1; 
stroke-linecap:round; stroke-linejoin:round;">
</g>
<g style="fill:#000000; fill-opacity:0.0; 
stroke:#000000; stroke-width:59.0551; stroke-opacity:1; 
stroke-linecap:round; stroke-linejoin:round;">
<path d="M69685 75396
L112205 75396
" />
</g>
<g style="fill:#000000; fill-opacity:0.0; 
stroke:#000000; stroke-width:39.3701; stroke-opacity:1; 
stroke-linecap:round; stroke-linejoin:round;">
</g>
<g style="fill:#000000; fill-opacity:0.0; 
stroke:#000000; stroke-width:118.11; stroke-opacity:1; 
stroke-linecap:round; stroke-linejoin:round;">
<path d="M104022 76293
L103825 76012
" />
<path d="M103684 76293
L103684 75703
L103909 75703
L103965 75731
L103994 75759
L104022 75815
L104022 75899
L103994 75956
L103965 75984
L103909 76012
L103684 76012
" />
<path d="M104500 76265
L104444 76293
L104331 76293
L104275 76265
L104247 76209
L104247 75984
L104275 75928
L104331 75899
L104444 75899
L104500 75928
L104528 75984
L104528 76040
L104247 76096
" />
<path d="M104725 75899
L104865 76293
L105006 75899
" />
<path d="M105231 76237
L105259 76265
L105231 76293
L105203 76265
L105231 76237
L105231 76293
" />
<path d="M105231 75928
L105259 75956
L105231 75984
L105203 75956
L105231 75928
L105231 75984
" />
</g>
<g style="fill:#000000; fill-opacity:0.0; 
stroke:#000000; stroke-width:39.3701; stroke-opacity:1; 
stroke-linecap:round; stroke-linejoin:round;">
</g>
<g style="fill:#000000; fill-opacity:0.0; 
stroke:#000000; stroke-width:59.0551; stroke-opacity:1; 
stroke-linecap:round; stroke-linejoin:round;">
<path d="M70192 76265
L70276 76293
L70417 76293
L70473 76265
L70501 76237
L70529 76181
L70529 76124
L70501 76068
L70473 76040
L70417 76012
L70304 75984
L70248 75956
L70220 75928
L70192 75871
L70192 75815
L70220 75759
L70248 75731
L70304 75703
L70445 75703
L70529 75731
" />
<path d="M70782 76293
L70782 75899
" />
<path d="M70782 75703
L70754 75731
L70782 75759
L70810 75731
L70782 75703
L70782 75759
" />
<path d="M71007 75899
L71316 75899
L71007 76293
L71316 76293
" />
<path d="M71766 76265
L71710 76293
L71598 76293
L71541 76265
L71513 76209
L71513 75984
L71541 75928
L71598 75899
L71710 75899
L71766 75928
L71795 75984
L71795 76040
L71513 76096
" />
<path d="M72048 76237
L72076 76265
L72048 76293
L72019 76265
L72048 76237
L72048 76293
" />
<path d="M72048 75928
L72076 75956
L72048 75984
L72019 75956
L72048 75928
L72048 75984
" />
<path d="M72751 76124
L73032 76124
" />
<path d="M72694 76293
L72891 75703
L73088 76293
" />
<path d="M73538 75899
L73538 76293
" />
<path d="M73397 75674
L73257 76096
L73622 76096
" />
</g>
<g style="fill:#000000; fill-opacity:0.0; 
stroke:#000000; stroke-width:39.3701; stroke-opacity:1; 
stroke-linecap:round; stroke-linejoin:round;">
</g>
<g style="fill:#000000; fill-opacity:0.0; 
stroke:#000000; stroke-width:59.0551; stroke-opacity:1; 
stroke-linecap:round; stroke-linejoin:round;">
<path d="M103684 77395
L103684 76805
" />
<path d="M104219 77395
L104219 76805
" />
<path d="M104219 77367
L104162 77395
L104050 77395
L103994 77367
L103965 77339
L103937 77283
L103937 77114
L103965 77058
L103994 77030
L104050 77002
L104162 77002
L104219 77030
" />
<path d="M104500 77339
L104528 77367
L104500 77395
L104472 77367
L104500 77339
L104500 77395
" />
<path d="M104500 77030
L104528 77058
L104500 77086
L104472 77058
L104500 77030
L104500 77086
" />
<path d="M105540 77395
L105203 77395
" />
<path d="M105372 77395
L105372 76805
L105315 76889
L105259 76946
L105203 76974
" />
<path d="M106215 76777
L105709 77536
" />
<path d="M106721 77395
L106384 77395
" />
<path d="M106553 77395
L106553 76805
L106496 76889
L106440 76946
L106384 76974
" />
</g>
<g style="fill:#000000; fill-opacity:0.0; 
stroke:#000000; stroke-width:39.3701; stroke-opacity:1; 
stroke-linecap:round; stroke-linejoin:round;">
</g>
<g style="fill:#000000; fill-opacity:0.0; 
stroke:#000000; stroke-width:59.0551; stroke-opacity:1; 
stroke-linecap:round; stroke-linejoin:round;">
<path d="M69685 73821
L112205 73821
" />
</g>
<g style="fill:#000000; fill-opacity:0.0; 
stroke:#000000; stroke-width:39.3701; stroke-opacity:1; 
stroke-linecap:round; stroke-linejoin:round;">
</g>
<g style="fill:#000000; fill-opacity:0.0; 
stroke:#000000; stroke-width:157.48; stroke-opacity:1; 
stroke-linecap:round; stroke-linejoin:round;">
<path d="M70257 74099
L70707 74099
" />
<path d="M70384 74886
L70482 74099
" />
<path d="M70871 74886
L70937 74361
" />
<path d="M70970 74099
L70927 74136
L70960 74174
L71002 74136
L70970 74099
L70960 74174
" />
<path d="M71199 74361
L71499 74361
" />
<path d="M71345 74099
L71260 74774
L71288 74849
L71359 74886
L71434 74886
" />
<path d="M71809 74886
L71738 74849
L71710 74774
L71795 74099
" />
<path d="M72413 74849
L72334 74886
L72184 74886
L72113 74849
L72085 74774
L72123 74474
L72169 74399
L72249 74361
L72399 74361
L72469 74399
L72498 74474
L72488 74549
L72104 74624
" />
<path d="M72793 74811
L72826 74849
L72783 74886
L72751 74849
L72793 74811
L72783 74886
" />
<path d="M72844 74399
L72877 74436
L72835 74474
L72802 74436
L72844 74399
L72835 74474
" />
</g>
<g style="fill:#000000; fill-opacity:0.0; 
stroke:#000000; stroke-width:39.3701; stroke-opacity:1; 
stroke-linecap:round; stroke-linejoin:round;">
</g>
<g style="fill:#000000; fill-opacity:0.0; 
stroke:#000000; stroke-width:59.0551; stroke-opacity:1; 
stroke-linecap:round; stroke-linejoin:round;">
<path d="M70417 73070
L70220 73070
" />
<path d="M70220 73380
L70220 72789
L70501 72789
" />
<path d="M70726 73380
L70726 72986
" />
<path d="M70726 72789
L70698 72817
L70726 72845
L70754 72817
L70726 72789
L70726 72845
" />
<path d="M71091 73380
L71035 73352
L71007 73295
L71007 72789
" />
<path d="M71541 73352
L71485 73380
L71373 73380
L71316 73352
L71288 73295
L71288 73070
L71316 73014
L71373 72986
L71485 72986
L71541 73014
L71570 73070
L71570 73127
L71288 73183
" />
<path d="M71823 73323
L71851 73352
L71823 73380
L71795 73352
L71823 73323
L71823 73380
" />
<path d="M71823 73014
L71851 73042
L71823 73070
L71795 73042
L71823 73014
L71823 73070
" />
<path d="M72891 73380
L72694 73099
" />
<path d="M72554 73380
L72554 72789
L72779 72789
L72835 72817
L72863 72845
L72891 72902
L72891 72986
L72863 73042
L72835 73070
L72779 73099
L72554 73099
" />
<path d="M73144 73380
L73144 72986
" />
<path d="M73144 72789
L73116 72817
L73144 72845
L73172 72817
L73144 72789
L73144 72845
" />
<path d="M73397 73352
L73454 73380
L73566 73380
L73622 73352
L73651 73295
L73651 73267
L73622 73211
L73566 73183
L73482 73183
L73426 73155
L73397 73099
L73397 73070
L73426 73014
L73482 72986
L73566 72986
L73622 73014
" />
<path d="M74157 73380
L74157 73070
L74129 73014
L74072 72986
L73960 72986
L73904 73014
" />
<path d="M74157 73352
L74100 73380
L73960 73380
L73904 73352
L73876 73295
L73876 73239
L73904 73183
L73960 73155
L74100 73155
L74157 73127
" />
<path d="M74522 73380
L74466 73352
L74438 73295
L74438 72789
" />
<path d="M74747 72986
L74747 73577
" />
<path d="M74747 73014
L74804 72986
L74916 72986
L74972 73014
L75000 73042
L75028 73099
L75028 73267
L75000 73323
L74972 73352
L74916 73380
L74804 73380
L74747 73352
" />
<path d="M75535 72986
L75535 73380
" />
<path d="M75282 72986
L75282 73295
L75310 73352
L75366 73380
L75450 73380
L75507 73352
L75535 73323
" />
<path d="M75816 73380
L75816 72986
" />
<path d="M75816 73042
L75844 73014
L75900 72986
L75985 72986
L76041 73014
L76069 73070
L76069 73380
" />
<path d="M76069 73070
L76097 73014
L76153 72986
L76238 72986
L76294 73014
L76322 73070
L76322 73380
" />
<path d="M76603 72986
L76603 73577
" />
<path d="M76603 73014
L76660 72986
L76772 72986
L76828 73014
L76856 73042
L76885 73099
L76885 73267
L76856 73323
L76828 73352
L76772 73380
L76660 73380
L76603 73352
" />
<path d="M77138 73380
L77138 72789
" />
<path d="M77194 73155
L77363 73380
" />
<path d="M77363 72986
L77138 73211
" />
<path d="M77616 73380
L77616 72986
" />
<path d="M77616 72789
L77588 72817
L77616 72845
L77644 72817
L77616 72789
L77616 72845
" />
<path d="M77897 73323
L77925 73352
L77897 73380
L77869 73352
L77897 73323
L77897 73380
" />
<path d="M78178 73380
L78178 72789
" />
<path d="M78234 73155
L78403 73380
" />
<path d="M78403 72986
L78178 73211
" />
<path d="M78656 73380
L78656 72986
" />
<path d="M78656 72789
L78628 72817
L78656 72845
L78684 72817
L78656 72789
L78656 72845
" />
<path d="M79190 73352
L79134 73380
L79022 73380
L78965 73352
L78937 73323
L78909 73267
L78909 73099
L78937 73042
L78965 73014
L79022 72986
L79134 72986
L79190 73014
" />
<path d="M79697 73380
L79697 73070
L79669 73014
L79612 72986
L79500 72986
L79444 73014
" />
<path d="M79697 73352
L79640 73380
L79500 73380
L79444 73352
L79415 73295
L79415 73239
L79444 73183
L79500 73155
L79640 73155
L79697 73127
" />
<path d="M80231 73380
L80231 72789
" />
<path d="M80231 73352
L80175 73380
L80062 73380
L80006 73352
L79978 73323
L79950 73267
L79950 73099
L79978 73042
L80006 73014
L80062 72986
L80175 72986
L80231 73014
" />
<path d="M80372 73436
L80822 73436
" />
<path d="M80962 72986
L80962 73577
" />
<path d="M80962 73014
L81018 72986
L81131 72986
L81187 73014
L81215 73042
L81243 73099
L81243 73267
L81215 73323
L81187 73352
L81131 73380
L81018 73380
L80962 73352
" />
<path d="M81750 73352
L81693 73380
L81581 73380
L81525 73352
L81496 73323
L81468 73267
L81468 73099
L81496 73042
L81525 73014
L81581 72986
L81693 72986
L81750 73014
" />
<path d="M82003 73380
L82003 72789
" />
<path d="M82003 73014
L82059 72986
L82171 72986
L82228 73014
L82256 73042
L82284 73099
L82284 73267
L82256 73323
L82228 73352
L82171 73380
L82059 73380
L82003 73352
" />
</g>
<g style="fill:#000000; fill-opacity:0.0; 
stroke:#000000; stroke-width:39.3701; stroke-opacity:1; 
stroke-linecap:round; stroke-linejoin:round;">
</g>
<g style="fill:#000000; fill-opacity:0.0; 
stroke:#000000; stroke-width:59.0551; stroke-opacity:1; 
stroke-linecap:round; stroke-linejoin:round;">
<path d="M69685 71459
L112205 71459
" />
</g>
<g style="fill:#000000; fill-opacity:0.0; 
stroke:#000000; stroke-width:39.3701; stroke-opacity:1; 
stroke-linecap:round; stroke-linejoin:round;">
</g>
<g style="fill:#000000; fill-opacity:0.0; 
stroke:#000000; stroke-width:59.0551; stroke-opacity:1; 
stroke-linecap:round; stroke-linejoin:round;">
<path d="M70192 72289
L70276 72317
L70417 72317
L70473 72289
L70501 72260
L70529 72204
L70529 72148
L70501 72092
L70473 72064
L70417 72036
L70304 72007
L70248 71979
L70220 71951
L70192 71895
L70192 71839
L70220 71782
L70248 71754
L70304 71726
L70445 71726
L70529 71754
" />
<path d="M70782 72317
L70782 71726
" />
<path d="M71035 72317
L71035 72007
L71007 71951
L70951 71923
L70867 71923
L70810 71951
L70782 71979
" />
<path d="M71541 72289
L71485 72317
L71373 72317
L71316 72289
L71288 72232
L71288 72007
L71316 71951
L71373 71923
L71485 71923
L71541 71951
L71570 72007
L71570 72064
L71288 72120
" />
<path d="M72048 72289
L71991 72317
L71879 72317
L71823 72289
L71795 72232
L71795 72007
L71823 71951
L71879 71923
L71991 71923
L72048 71951
L72076 72007
L72076 72064
L71795 72120
" />
<path d="M72244 71923
L72469 71923
" />
<path d="M72329 71726
L72329 72232
L72357 72289
L72413 72317
L72469 72317
" />
<path d="M72666 72260
L72694 72289
L72666 72317
L72638 72289
L72666 72260
L72666 72317
" />
<path d="M72666 71951
L72694 71979
L72666 72007
L72638 71979
L72666 71951
L72666 72007
" />
</g>
<g style="fill:#000000; fill-opacity:0.0; 
stroke:#000000; stroke-width:39.3701; stroke-opacity:1; 
stroke-linecap:round; stroke-linejoin:round;">
</g>
<g style="fill:#000000; fill-opacity:0.0; 
stroke:#000000; stroke-width:59.0551; stroke-opacity:1; 
stroke-linecap:round; stroke-linejoin:round;">
<path d="M77559 75396
L77559 76577
" />
</g>
<g style="fill:#000000; fill-opacity:0.0; 
stroke:#000000; stroke-width:39.3701; stroke-opacity:1; 
stroke-linecap:round; stroke-linejoin:round;">
</g>
<g style="fill:#000000; fill-opacity:0.0; 
stroke:#000000; stroke-width:59.0551; stroke-opacity:1; 
stroke-linecap:round; stroke-linejoin:round;">
<path d="M102756 75396
L102756 77955
" />
</g>
<g style="fill:#C2C200; fill-opacity:0.0; 
stroke:#C2C200; stroke-width:59.0551; stroke-opacity:1; 
stroke-linecap:round; stroke-linejoin:round;">
<path d="M57700 47725
L57700 48044
L57718 48081
L57737 48100
L57775 48119
L57850 48119
L57887 48100
L57906 48081
L57925 48044
L57925 47725
" />
<path d="M58318 48119
L58093 48119
" />
<path d="M58206 48119
L58206 47725
L58168 47781
L58131 47819
L58093 47837
" />
</g>
<g style="fill:#C2C200; fill-opacity:0.0; 
stroke:#C2C200; stroke-width:62.9921; stroke-opacity:1; 
stroke-linecap:round; stroke-linejoin:round;">
<path d="M57760 39432
L57760 39642
" />
<path d="M57625 39432
L57625 39597
L57640 39627
L57670 39642
L57715 39642
L57745 39627
L57760 39612
" />
<path d="M57910 39642
L57910 39327
L58029 39327
L58059 39342
L58074 39357
L58089 39387
L58089 39432
L58074 39462
L58059 39477
L58029 39492
L57910 39492
" />
<path d="M58389 39642
L58209 39642
" />
<path d="M58299 39642
L58299 39327
L58269 39372
L58239 39402
L58209 39417
" />
</g>
<g style="fill:#C2C200; fill-opacity:0.0; 
stroke:#C2C200; stroke-width:59.0551; stroke-opacity:1; 
stroke-linecap:round; stroke-linejoin:round;">
<path d="M85678 22186
L85284 22186
L85284 22092
L85303 22036
L85340 21999
L85378 21980
L85453 21961
L85509 21961
L85584 21980
L85621 21999
L85659 22036
L85678 22092
L85678 22186
" />
<path d="M85659 21811
L85678 21755
L85678 21661
L85659 21624
L85640 21605
L85603 21586
L85565 21586
L85528 21605
L85509 21624
L85490 21661
L85471 21736
L85453 21774
L85434 21793
L85396 21811
L85359 21811
L85321 21793
L85303 21774
L85284 21736
L85284 21643
L85303 21586
" />
<path d="M85678 21211
L85678 21436
" />
<path d="M85678 21324
L85284 21324
L85340 21361
L85378 21399
L85396 21436
" />
<path d="M59316 26697
L59335 26641
L59335 26547
L59316 26509
L59298 26491
L59260 26472
L59223 26472
L59185 26491
L59166 26509
L59148 26547
L59129 26622
L59110 26659
L59091 26678
L59054 26697
L59016 26697
L58979 26678
L58960 26659
L58941 26622
L58941 26528
L58960 26472
" />
<path d="M59335 26303
L58941 26303
" />
<path d="M59335 26116
L58941 26116
L59223 25985
L58941 25853
L59335 25853
" />
<path d="M59335 25460
L59335 25685
" />
<path d="M59335 25572
L58941 25572
L58998 25610
L59035 25647
L59054 25685
" />
</g>
<g style="fill:#008484; fill-opacity:0.0; 
stroke:#008484; stroke-width:59.0551; stroke-opacity:1; 
stroke-linecap:round; stroke-linejoin:round;">
</g>
<g style="fill:#008484; fill-opacity:0.0; 
stroke:#008484; stroke-width:49.2126; stroke-opacity:1; 
stroke-linecap:round; stroke-linejoin:round;">
<path d="M66972 31268
L66963 31286
L66963 31314
L66972 31343
L66991 31361
L67009 31371
L67047 31380
L67075 31380
L67113 31371
L67131 31361
L67150 31343
L67159 31314
L67159 31296
L67150 31268
L67141 31258
L67075 31258
L67075 31296
" />
<path d="M67159 31174
L66963 31174
L67159 31061
L66963 31061
" />
<path d="M67159 30968
L66963 30968
L66963 30921
L66972 30893
L66991 30874
L67009 30865
L67047 30855
L67075 30855
L67113 30865
L67131 30874
L67150 30893
L67159 30921
L67159 30968
" />
<path d="M65939 31268
L65939 31155
" />
<path d="M66136 31211
L65939 31211
" />
<path d="M65939 31108
L66136 30977
" />
<path d="M65939 30977
L66136 31108
" />
<path d="M65191 31150
L65097 31216
" />
<path d="M65191 31263
L64994 31263
L64994 31188
L65003 31169
L65013 31160
L65032 31150
L65060 31150
L65078 31160
L65088 31169
L65097 31188
L65097 31263
" />
<path d="M64994 31085
L65191 30954
" />
<path d="M64994 30954
L65191 31085
" />
<path d="M64167 31225
L64074 31291
" />
<path d="M64167 31338
L63970 31338
L63970 31263
L63980 31244
L63989 31235
L64008 31225
L64036 31225
L64055 31235
L64064 31244
L64074 31263
L64074 31338
" />
<path d="M64158 31150
L64167 31122
L64167 31075
L64158 31057
L64149 31047
L64130 31038
L64111 31038
L64092 31047
L64083 31057
L64074 31075
L64064 31113
L64055 31132
L64045 31141
L64027 31150
L64008 31150
L63989 31141
L63980 31132
L63970 31113
L63970 31066
L63980 31038
" />
<path d="M63970 30982
L63970 30869
" />
<path d="M64167 30925
L63970 30925
" />
<path d="M62986 31380
L63183 31314
L62986 31249
" />
<path d="M63164 31071
L63174 31080
L63183 31108
L63183 31127
L63174 31155
L63155 31174
L63136 31183
L63099 31193
L63071 31193
L63033 31183
L63014 31174
L62996 31155
L62986 31127
L62986 31108
L62996 31080
L63005 31071
" />
<path d="M63164 30874
L63174 30883
L63183 30911
L63183 30930
L63174 30958
L63155 30977
L63136 30986
L63099 30996
L63071 30996
L63033 30986
L63014 30977
L62996 30958
L62986 30930
L62986 30911
L62996 30883
L63005 30874
" />
<path d="M62199 31299
L62002 31299
L62199 31186
L62002 31186
" />
<path d="M62096 31092
L62096 31027
" />
<path d="M62199 30999
L62199 31092
L62002 31092
L62002 30999
" />
<path d="M62002 30942
L62002 30830
" />
<path d="M62199 30886
L62002 30886
" />
</g>
<g style="fill:#C2C200; fill-opacity:0.0; 
stroke:#C2C200; stroke-width:49.2126; stroke-opacity:1; 
stroke-linecap:round; stroke-linejoin:round;">
</g>
<g style="fill:#C2C200; fill-opacity:0.0; 
stroke:#C2C200; stroke-width:59.0551; stroke-opacity:1; 
stroke-linecap:round; stroke-linejoin:round;">
<path d="M59200 25859
L59200 26177
L59218 26215
L59237 26234
L59275 26252
L59350 26252
L59387 26234
L59406 26215
L59425 26177
L59425 25859
" />
<path d="M59593 25896
L59612 25877
L59649 25859
L59743 25859
L59781 25877
L59799 25896
L59818 25934
L59818 25971
L59799 26027
L59574 26252
L59818 26252
" />
<path d="M55806 51342
L55825 51286
L55844 51267
L55881 51249
L55937 51249
L55975 51267
L55994 51286
L56012 51324
L56012 51474
L55619 51474
L55619 51342
L55637 51305
L55656 51286
L55694 51267
L55731 51267
L55769 51286
L55787 51305
L55806 51342
L55806 51474
" />
<path d="M55619 51117
L55619 50855
L56012 51117
L56012 50855
" />
<path d="M56012 50499
L56012 50724
" />
<path d="M56012 50611
L55619 50611
L55675 50649
L55712 50686
L55731 50724
" />
</g>
<g style="fill:#008484; fill-opacity:0.0; 
stroke:#008484; stroke-width:59.0551; stroke-opacity:1; 
stroke-linecap:round; stroke-linejoin:round;">
<path d="M54028 49646
L54028 49346
" />
<path d="M54178 49496
L53878 49496
" />
</g>
<g style="fill:#C2C200; fill-opacity:0.0; 
stroke:#C2C200; stroke-width:59.0551; stroke-opacity:1; 
stroke-linecap:round; stroke-linejoin:round;">
<path d="M50632 25549
L50651 25568
L50670 25624
L50670 25662
L50651 25718
L50613 25756
L50576 25774
L50501 25793
L50445 25793
L50370 25774
L50332 25756
L50295 25718
L50276 25662
L50276 25624
L50295 25568
L50314 25549
" />
<path d="M50670 25174
L50670 25399
" />
<path d="M50670 25287
L50276 25287
L50332 25324
L50370 25362
L50389 25399
" />
<path d="M54148 36081
L54167 36100
L54185 36156
L54185 36193
L54167 36250
L54129 36287
L54092 36306
L54017 36325
L53961 36325
L53886 36306
L53848 36287
L53811 36250
L53792 36193
L53792 36156
L53811 36100
L53829 36081
" />
<path d="M53829 35931
L53811 35912
L53792 35875
L53792 35781
L53811 35743
L53829 35725
L53867 35706
L53904 35706
L53961 35725
L54185 35950
L54185 35706
" />
<path d="M68209 47237
L68209 46843
L68303 46843
L68359 46862
L68396 46899
L68415 46937
L68434 47012
L68434 47068
L68415 47143
L68396 47180
L68359 47218
L68303 47237
L68209 47237
" />
<path d="M68809 47237
L68584 47237
" />
<path d="M68696 47237
L68696 46843
L68659 46899
L68621 46937
L68584 46955
" />
<path d="M68209 50737
L68209 50343
L68303 50343
L68359 50362
L68396 50399
L68415 50437
L68434 50512
L68434 50568
L68415 50643
L68396 50680
L68359 50718
L68303 50737
L68209 50737
" />
<path d="M68584 50380
L68603 50362
L68640 50343
L68734 50343
L68771 50362
L68790 50380
L68809 50418
L68809 50455
L68790 50512
L68565 50737
L68809 50737
" />
<path d="M68209 54237
L68209 53843
L68303 53843
L68359 53862
L68396 53899
L68415 53937
L68434 54012
L68434 54068
L68415 54143
L68396 54180
L68359 54218
L68303 54237
L68209 54237
" />
<path d="M68565 53843
L68809 53843
L68678 53993
L68734 53993
L68771 54012
L68790 54030
L68809 54068
L68809 54162
L68790 54199
L68771 54218
L68734 54237
L68621 54237
L68584 54218
L68565 54199
" />
<path d="M50404 32548
L50404 32829
L50385 32885
L50347 32923
L50291 32941
L50254 32941
" />
<path d="M50797 32941
L50572 32941
" />
<path d="M50685 32941
L50685 32548
L50647 32604
L50610 32641
L50572 32660
" />
<path d="M52661 43674
L52661 43280
L52792 43561
L52924 43280
L52924 43674
" />
<path d="M53317 43674
L53092 43674
" />
<path d="M53205 43674
L53205 43280
L53167 43336
L53130 43374
L53092 43392
" />
<path d="M60934 47630
L60803 47443
" />
<path d="M60709 47630
L60709 47237
L60859 47237
L60896 47255
L60915 47274
L60934 47312
L60934 47368
L60915 47405
L60896 47424
L60859 47443
L60709 47443
" />
<path d="M61309 47630
L61084 47630
" />
<path d="M61196 47630
L61196 47237
L61159 47293
L61121 47330
L61084 47349
" />
<path d="M60934 49130
L60803 48943
" />
<path d="M60709 49130
L60709 48737
L60859 48737
L60896 48755
L60915 48774
L60934 48812
L60934 48868
L60915 48905
L60896 48924
L60859 48943
L60709 48943
" />
<path d="M61084 48774
L61103 48755
L61140 48737
L61234 48737
L61271 48755
L61290 48774
L61309 48812
L61309 48849
L61290 48905
L61065 49130
L61309 49130
" />
<path d="M60934 50630
L60803 50443
" />
<path d="M60709 50630
L60709 50237
L60859 50237
L60896 50255
L60915 50274
L60934 50312
L60934 50368
L60915 50405
L60896 50424
L60859 50443
L60709 50443
" />
<path d="M61065 50237
L61309 50237
L61178 50387
L61234 50387
L61271 50405
L61290 50424
L61309 50462
L61309 50555
L61290 50593
L61271 50612
L61234 50630
L61121 50630
L61084 50612
L61065 50593
" />
<path d="M77434 52607
L77303 52419
" />
<path d="M77209 52607
L77209 52213
L77359 52213
L77396 52232
L77415 52251
L77434 52288
L77434 52344
L77415 52382
L77396 52401
L77359 52419
L77209 52419
" />
<path d="M77771 52344
L77771 52607
" />
<path d="M77678 52194
L77584 52476
L77828 52476
" />
</g>
<g style="fill:#008484; fill-opacity:0.0; 
stroke:#008484; stroke-width:59.0551; stroke-opacity:1; 
stroke-linecap:round; stroke-linejoin:round;">
</g>
<g style="fill:#008484; fill-opacity:0.0; 
stroke:#008484; stroke-width:47.2441; stroke-opacity:1; 
stroke-linecap:round; stroke-linejoin:round;">
<path d="M58393.7 47547.2 A393.701 393.701 0.0 0 0 57606.3 47547.2 " />
<path d="M58393 47547
L59090 47547
" />
<path d="M59090 47547
L59090 40452
" />
<path d="M59090 40452
L56909 40452
" />
<path d="M56909 40452
L56909 47547
" />
<path d="M56909 47547
L57606 47547
" />
</g>
<g style="fill:#008484; fill-opacity:0.0; 
stroke:#008484; stroke-width:59.0551; stroke-opacity:1; 
stroke-linecap:round; stroke-linejoin:round;">
<path d="M69500 39100
L69500 32000
" />
<path d="M56600 32000
L56600 39100
" />
<path d="M69500 39100
L56600 39100
" />
<path d="M56600 32000
L69500 32000
" />
</g>
<g style="fill:#008484; fill-opacity:0.0; 
stroke:#008484; stroke-width:47.2441; stroke-opacity:1; 
stroke-linecap:round; stroke-linejoin:round;">
<path d="M70755 20795
L70755 52401
" />
<path d="M70755 52401
L85039 52401
" />
<path d="M85039 52401
L85039 21110
" />
<path d="M85039 20795
L70755 20795
" />
<path d="M85039 20799
L85039 21110
" />
<path d="M85181 23409
L85181 24590
" />
<path d="M80850 24078
L80850 49078
" />
<path d="M75142 23882
L80653 23882
" />
<path d="M74944 49079
L74944 24078
" />
<path d="M80653 49275
L75141 49275
" />
<path d="M80653.5 49275.6 A196.85 196.85 0.0 0 0 80850.4 49078.7 " />
<path d="M74945 49079 A197 197 0.0 0 0 75142 49276 " />
<path d="M75142 23882 A197 197 0.0 0 0 74945 24079 " />
<path d="M80851 24079 A197 197 0.0 0 0 80654 23882 " />
<path d="M82818 22031
L82818 50771
" />
<path d="M82818 50771
L72976 50771
" />
<path d="M72976 50771
L72976 22031
" />
<path d="M72976 22031
L82818 22031
" />
</g>
<g style="fill:#008484; fill-opacity:0.0; 
stroke:#008484; stroke-width:59.0551; stroke-opacity:1; 
stroke-linecap:round; stroke-linejoin:round;">
<path d="M62543 29110
L68448 29110
" />
<path d="M68448 29110
L68448 22417
" />
<path d="M68448 22417
L62543 22417
" />
<path d="M62543 22417
L62543 29110
" />
<path d="M59787 30685
L69000 30685
" />
<path d="M69000 30685
L69000 20842
" />
<path d="M69000 20842
L59787 20842
" />
<path d="M59787 20842
L59787 30685
" />
</g>
<g style="fill:#008484; fill-opacity:0.0; 
stroke:#008484; stroke-width:47.2441; stroke-opacity:1; 
stroke-linecap:round; stroke-linejoin:round;">
<path d="M57484 26468
L61515 26468
" />
<path d="M57484 28295
L61515 28295
" />
<path d="M57484 26468
L57484 28295
" />
<path d="M61515 26468
L61515 28295
" />
<path d="M57484 27062
L61515 27062
" />
<path d="M58771 26468
L58771 27062
" />
<path d="M60228 26468
L60228 27062
" />
<circle cx="53000" cy="50996.1" r="2401.57" /> 
<circle cx="53000" cy="25484.3" r="2015.75" /> 
<path d="M51000 25484
L55000 25484
" />
<path d="M51000 25468
L55000 25468
" />
<path d="M51000 25452
L55000 25452
" />
<path d="M51000 25437
L54999 25437
" />
<path d="M51000 25421
L54999 25421
" />
<path d="M51001 25405
L54998 25405
" />
<path d="M51001 25389
L54998 25389
" />
<path d="M51002 25374
L54997 25374
" />
<path d="M51003 25358
L54996 25358
" />
<path d="M51004 25342
L54995 25342
" />
<path d="M51005 25326
L54994 25326
" />
<path d="M51007 25311
L54992 25311
" />
<path d="M51008 25295
L54991 25295
" />
<path d="M51010 25279
L54989 25279
" />
<path d="M51011 25263
L54988 25263
" />
<path d="M51013 25248
L54986 25248
" />
<path d="M51015 25232
L54984 25232
" />
<path d="M51017 25216
L54982 25216
" />
<path d="M51019 25200
L54980 25200
" />
<path d="M51022 25184
L54977 25184
" />
<path d="M51024 25168
L54975 25168
" />
<path d="M51027 25153
L54972 25153
" />
<path d="M51029 25137
L54970 25137
" />
<path d="M51032 25121
L54967 25121
" />
<path d="M51035 25105
L54964 25105
" />
<path d="M51038 25090
L54961 25090
" />
<path d="M51041 25074
L54958 25074
" />
<path d="M51045 25058
L54954 25058
" />
<path d="M51048 25042
L54951 25042
" />
<path d="M51052 25027
L54947 25027
" />
<path d="M51055 25011
L54944 25011
" />
<path d="M51059 24995
L54940 24995
" />
<path d="M51063 24979
L52511 24979
" />
<path d="M53488 24979
L54936 24979
" />
<path d="M51068 24964
L52511 24964
" />
<path d="M53488 24964
L54931 24964
" />
<path d="M51072 24948
L52511 24948
" />
<path d="M53488 24948
L54927 24948
" />
<path d="M51076 24932
L52511 24932
" />
<path d="M53488 24932
L54923 24932
" />
<path d="M51081 24916
L52511 24916
" />
<path d="M53488 24916
L54918 24916
" />
<path d="M51085 24901
L52511 24901
" />
<path d="M53488 24901
L54914 24901
" />
<path d="M51090 24885
L52511 24885
" />
<path d="M53488 24885
L54909 24885
" />
<path d="M51095 24869
L52511 24869
" />
<path d="M53488 24869
L54904 24869
" />
<path d="M51100 24853
L52511 24853
" />
<path d="M53488 24853
L54899 24853
" />
<path d="M51105 24838
L52511 24838
" />
<path d="M53488 24838
L54894 24838
" />
<path d="M51111 24822
L52511 24822
" />
<path d="M53488 24822
L54888 24822
" />
<path d="M51116 24806
L52511 24806
" />
<path d="M53488 24806
L54883 24806
" />
<path d="M51122 24790
L52511 24790
" />
<path d="M53488 24790
L54877 24790
" />
<path d="M51128 24775
L52511 24775
" />
<path d="M53488 24775
L54871 24775
" />
<path d="M51134 24759
L52511 24759
" />
<path d="M53488 24759
L54865 24759
" />
<path d="M51140 24743
L52511 24743
" />
<path d="M53488 24743
L54859 24743
" />
<path d="M51146 24727
L52511 24727
" />
<path d="M53488 24727
L54853 24727
" />
<path d="M51153 24712
L52511 24712
" />
<path d="M53488 24712
L54846 24712
" />
<path d="M51159 24696
L52511 24696
" />
<path d="M53488 24696
L54840 24696
" />
<path d="M51166 24680
L52511 24680
" />
<path d="M53488 24680
L54833 24680
" />
<path d="M51173 24664
L52511 24664
" />
<path d="M53488 24664
L54826 24664
" />
<path d="M51180 24649
L52511 24649
" />
<path d="M53488 24649
L54819 24649
" />
<path d="M51187 24633
L52511 24633
" />
<path d="M53488 24633
L54812 24633
" />
<path d="M51195 24617
L52511 24617
" />
<path d="M53488 24617
L54804 24617
" />
<path d="M51203 24601
L52511 24601
" />
<path d="M53488 24601
L54796 24601
" />
<path d="M51210 24586
L52511 24586
" />
<path d="M53488 24586
L54789 24586
" />
<path d="M51218 24570
L52511 24570
" />
<path d="M53488 24570
L54781 24570
" />
<path d="M51226 24554
L52511 24554
" />
<path d="M53488 24554
L54773 24554
" />
<path d="M51235 24538
L52511 24538
" />
<path d="M53488 24538
L54764 24538
" />
<path d="M51243 24523
L52511 24523
" />
<path d="M53488 24523
L54756 24523
" />
<path d="M51251 24507
L52511 24507
" />
<path d="M53488 24507
L54748 24507
" />
<path d="M51261 24491
L52511 24491
" />
<path d="M53488 24491
L54738 24491
" />
<path d="M51269 24475
L52511 24475
" />
<path d="M53488 24475
L54730 24475
" />
<path d="M51279 24460
L52511 24460
" />
<path d="M53488 24460
L54720 24460
" />
<path d="M51288 24444
L52511 24444
" />
<path d="M53488 24444
L54711 24444
" />
<path d="M51298 24428
L52511 24428
" />
<path d="M53488 24428
L54701 24428
" />
<path d="M51307 24412
L52511 24412
" />
<path d="M53488 24412
L54692 24412
" />
<path d="M51317 24397
L52511 24397
" />
<path d="M53488 24397
L54682 24397
" />
<path d="M51327 24381
L52511 24381
" />
<path d="M53488 24381
L54672 24381
" />
<path d="M51338 24365
L52511 24365
" />
<path d="M53488 24365
L54661 24365
" />
<path d="M51348 24350
L52511 24350
" />
<path d="M53488 24350
L54651 24350
" />
<path d="M51359 24334
L52511 24334
" />
<path d="M53488 24334
L54640 24334
" />
<path d="M51370 24318
L52511 24318
" />
<path d="M53488 24318
L54629 24318
" />
<path d="M51381 24302
L52511 24302
" />
<path d="M53488 24302
L54618 24302
" />
<path d="M51393 24287
L52511 24287
" />
<path d="M53488 24287
L54606 24287
" />
<path d="M51405 24271
L52511 24271
" />
<path d="M53488 24271
L54594 24271
" />
<path d="M51417 24255
L52511 24255
" />
<path d="M53488 24255
L54582 24255
" />
<path d="M51429 24239
L52511 24239
" />
<path d="M53488 24239
L54570 24239
" />
<path d="M51442 24224
L52511 24224
" />
<path d="M53488 24224
L54557 24224
" />
<path d="M51454 24208
L52511 24208
" />
<path d="M53488 24208
L54545 24208
" />
<path d="M51467 24192
L52511 24192
" />
<path d="M53488 24192
L54532 24192
" />
<path d="M51481 24176
L52511 24176
" />
<path d="M53488 24176
L54518 24176
" />
<path d="M51494 24161
L52511 24161
" />
<path d="M53488 24161
L54505 24161
" />
<path d="M51508 24145
L52511 24145
" />
<path d="M53488 24145
L54491 24145
" />
<path d="M51522 24129
L52511 24129
" />
<path d="M53488 24129
L54477 24129
" />
<path d="M51537 24113
L52511 24113
" />
<path d="M53488 24113
L54462 24113
" />
<path d="M51551 24098
L52511 24098
" />
<path d="M53488 24098
L54448 24098
" />
<path d="M51566 24082
L52511 24082
" />
<path d="M53488 24082
L54433 24082
" />
<path d="M51582 24066
L52511 24066
" />
<path d="M53488 24066
L54417 24066
" />
<path d="M51598 24050
L52511 24050
" />
<path d="M53488 24050
L54401 24050
" />
<path d="M51614 24035
L52511 24035
" />
<path d="M53488 24035
L54385 24035
" />
<path d="M51630 24019
L52511 24019
" />
<path d="M53488 24019
L54369 24019
" />
<path d="M51647 24003
L54352 24003
" />
<path d="M51664 23987
L54335 23987
" />
<path d="M51682 23972
L54317 23972
" />
<path d="M51700 23956
L54299 23956
" />
<path d="M51718 23940
L54281 23940
" />
<path d="M51737 23924
L54262 23924
" />
<path d="M51757 23909
L54242 23909
" />
<path d="M51777 23893
L54222 23893
" />
<path d="M51797 23877
L54202 23877
" />
<path d="M51818 23861
L54181 23861
" />
<path d="M51840 23846
L54159 23846
" />
<path d="M51862 23830
L54137 23830
" />
<path d="M51885 23814
L54114 23814
" />
<path d="M51909 23798
L54090 23798
" />
<path d="M51933 23783
L54066 23783
" />
<path d="M51958 23767
L54041 23767
" />
<path d="M51984 23751
L54015 23751
" />
<path d="M52011 23735
L53988 23735
" />
<path d="M52039 23720
L53960 23720
" />
<path d="M52068 23704
L53931 23704
" />
<path d="M52098 23688
L53901 23688
" />
<path d="M52130 23672
L53869 23672
" />
<path d="M52163 23657
L53836 23657
" />
<path d="M52198 23641
L53801 23641
" />
<path d="M52234 23625
L53765 23625
" />
<path d="M52273 23609
L53726 23609
" />
<path d="M52314 23594
L53685 23594
" />
<path d="M52358 23578
L53641 23578
" />
<path d="M52405 23562
L53594 23562
" />
<path d="M52457 23546
L53542 23546
" />
<path d="M52515 23531
L53484 23531
" />
<path d="M52581 23515
L53418 23515
" />
<path d="M52660 23499
L53339 23499
" />
<path d="M52764 23483
L53235 23483
" />
<path d="M51868 27641
L51868 27247
" />
<path d="M51671 27444
L52064 27444
" />
<circle cx="51500" cy="36015.7" r="2015.75" /> 
<path d="M53500 36015
L49500 36015
" />
<path d="M53500 36031
L49500 36031
" />
<path d="M53500 36047
L49500 36047
" />
<path d="M53499 36062
L49500 36062
" />
<path d="M53499 36078
L49500 36078
" />
<path d="M53498 36094
L49501 36094
" />
<path d="M53498 36110
L49501 36110
" />
<path d="M53497 36125
L49502 36125
" />
<path d="M53496 36141
L49503 36141
" />
<path d="M53495 36157
L49504 36157
" />
<path d="M53494 36173
L49505 36173
" />
<path d="M53492 36188
L49507 36188
" />
<path d="M53491 36204
L49508 36204
" />
<path d="M53489 36220
L49510 36220
" />
<path d="M53488 36236
L49511 36236
" />
<path d="M53486 36251
L49513 36251
" />
<path d="M53484 36267
L49515 36267
" />
<path d="M53482 36283
L49517 36283
" />
<path d="M53480 36299
L49519 36299
" />
<path d="M53477 36315
L49522 36315
" />
<path d="M53475 36331
L49524 36331
" />
<path d="M53472 36346
L49527 36346
" />
<path d="M53470 36362
L49529 36362
" />
<path d="M53467 36378
L49532 36378
" />
<path d="M53464 36394
L49535 36394
" />
<path d="M53461 36409
L49538 36409
" />
<path d="M53458 36425
L49541 36425
" />
<path d="M53454 36441
L49545 36441
" />
<path d="M53451 36457
L49548 36457
" />
<path d="M53447 36472
L49552 36472
" />
<path d="M53444 36488
L49555 36488
" />
<path d="M53440 36504
L49559 36504
" />
<path d="M53436 36520
L51988 36520
" />
<path d="M51011 36520
L49563 36520
" />
<path d="M53431 36535
L51988 36535
" />
<path d="M51011 36535
L49568 36535
" />
<path d="M53427 36551
L51988 36551
" />
<path d="M51011 36551
L49572 36551
" />
<path d="M53423 36567
L51988 36567
" />
<path d="M51011 36567
L49576 36567
" />
<path d="M53418 36583
L51988 36583
" />
<path d="M51011 36583
L49581 36583
" />
<path d="M53414 36598
L51988 36598
" />
<path d="M51011 36598
L49585 36598
" />
<path d="M53409 36614
L51988 36614
" />
<path d="M51011 36614
L49590 36614
" />
<path d="M53404 36630
L51988 36630
" />
<path d="M51011 36630
L49595 36630
" />
<path d="M53399 36646
L51988 36646
" />
<path d="M51011 36646
L49600 36646
" />
<path d="M53394 36661
L51988 36661
" />
<path d="M51011 36661
L49605 36661
" />
<path d="M53388 36677
L51988 36677
" />
<path d="M51011 36677
L49611 36677
" />
<path d="M53383 36693
L51988 36693
" />
<path d="M51011 36693
L49616 36693
" />
<path d="M53377 36709
L51988 36709
" />
<path d="M51011 36709
L49622 36709
" />
<path d="M53371 36724
L51988 36724
" />
<path d="M51011 36724
L49628 36724
" />
<path d="M53365 36740
L51988 36740
" />
<path d="M51011 36740
L49634 36740
" />
<path d="M53359 36756
L51988 36756
" />
<path d="M51011 36756
L49640 36756
" />
<path d="M53353 36772
L51988 36772
" />
<path d="M51011 36772
L49646 36772
" />
<path d="M53346 36787
L51988 36787
" />
<path d="M51011 36787
L49653 36787
" />
<path d="M53340 36803
L51988 36803
" />
<path d="M51011 36803
L49659 36803
" />
<path d="M53333 36819
L51988 36819
" />
<path d="M51011 36819
L49666 36819
" />
<path d="M53326 36835
L51988 36835
" />
<path d="M51011 36835
L49673 36835
" />
<path d="M53319 36850
L51988 36850
" />
<path d="M51011 36850
L49680 36850
" />
<path d="M53312 36866
L51988 36866
" />
<path d="M51011 36866
L49687 36866
" />
<path d="M53304 36882
L51988 36882
" />
<path d="M51011 36882
L49695 36882
" />
<path d="M53296 36898
L51988 36898
" />
<path d="M51011 36898
L49703 36898
" />
<path d="M53289 36913
L51988 36913
" />
<path d="M51011 36913
L49710 36913
" />
<path d="M53281 36929
L51988 36929
" />
<path d="M51011 36929
L49718 36929
" />
<path d="M53273 36945
L51988 36945
" />
<path d="M51011 36945
L49726 36945
" />
<path d="M53264 36961
L51988 36961
" />
<path d="M51011 36961
L49735 36961
" />
<path d="M53256 36976
L51988 36976
" />
<path d="M51011 36976
L49743 36976
" />
<path d="M53248 36992
L51988 36992
" />
<path d="M51011 36992
L49751 36992
" />
<path d="M53238 37008
L51988 37008
" />
<path d="M51011 37008
L49761 37008
" />
<path d="M53230 37024
L51988 37024
" />
<path d="M51011 37024
L49769 37024
" />
<path d="M53220 37039
L51988 37039
" />
<path d="M51011 37039
L49779 37039
" />
<path d="M53211 37055
L51988 37055
" />
<path d="M51011 37055
L49788 37055
" />
<path d="M53201 37071
L51988 37071
" />
<path d="M51011 37071
L49798 37071
" />
<path d="M53192 37087
L51988 37087
" />
<path d="M51011 37087
L49807 37087
" />
<path d="M53182 37102
L51988 37102
" />
<path d="M51011 37102
L49817 37102
" />
<path d="M53172 37118
L51988 37118
" />
<path d="M51011 37118
L49827 37118
" />
<path d="M53161 37134
L51988 37134
" />
<path d="M51011 37134
L49838 37134
" />
<path d="M53151 37150
L51988 37150
" />
<path d="M51011 37150
L49848 37150
" />
<path d="M53140 37165
L51988 37165
" />
<path d="M51011 37165
L49859 37165
" />
<path d="M53129 37181
L51988 37181
" />
<path d="M51011 37181
L49870 37181
" />
<path d="M53118 37197
L51988 37197
" />
<path d="M51011 37197
L49881 37197
" />
<path d="M53106 37212
L51988 37212
" />
<path d="M51011 37212
L49893 37212
" />
<path d="M53094 37228
L51988 37228
" />
<path d="M51011 37228
L49905 37228
" />
<path d="M53082 37244
L51988 37244
" />
<path d="M51011 37244
L49917 37244
" />
<path d="M53070 37260
L51988 37260
" />
<path d="M51011 37260
L49929 37260
" />
<path d="M53057 37275
L51988 37275
" />
<path d="M51011 37275
L49942 37275
" />
<path d="M53045 37291
L51988 37291
" />
<path d="M51011 37291
L49954 37291
" />
<path d="M53032 37307
L51988 37307
" />
<path d="M51011 37307
L49967 37307
" />
<path d="M53018 37323
L51988 37323
" />
<path d="M51011 37323
L49981 37323
" />
<path d="M53005 37338
L51988 37338
" />
<path d="M51011 37338
L49994 37338
" />
<path d="M52991 37354
L51988 37354
" />
<path d="M51011 37354
L50008 37354
" />
<path d="M52977 37370
L51988 37370
" />
<path d="M51011 37370
L50022 37370
" />
<path d="M52962 37386
L51988 37386
" />
<path d="M51011 37386
L50037 37386
" />
<path d="M52948 37401
L51988 37401
" />
<path d="M51011 37401
L50051 37401
" />
<path d="M52933 37417
L51988 37417
" />
<path d="M51011 37417
L50066 37417
" />
<path d="M52917 37433
L51988 37433
" />
<path d="M51011 37433
L50082 37433
" />
<path d="M52901 37449
L51988 37449
" />
<path d="M51011 37449
L50098 37449
" />
<path d="M52885 37464
L51988 37464
" />
<path d="M51011 37464
L50114 37464
" />
<path d="M52869 37480
L51988 37480
" />
<path d="M51011 37480
L50130 37480
" />
<path d="M52852 37496
L50147 37496
" />
<path d="M52835 37512
L50164 37512
" />
<path d="M52817 37527
L50182 37527
" />
<path d="M52799 37543
L50200 37543
" />
<path d="M52781 37559
L50218 37559
" />
<path d="M52762 37575
L50237 37575
" />
<path d="M52742 37590
L50257 37590
" />
<path d="M52722 37606
L50277 37606
" />
<path d="M52702 37622
L50297 37622
" />
<path d="M52681 37638
L50318 37638
" />
<path d="M52659 37653
L50340 37653
" />
<path d="M52637 37669
L50362 37669
" />
<path d="M52614 37685
L50385 37685
" />
<path d="M52590 37701
L50409 37701
" />
<path d="M52566 37716
L50433 37716
" />
<path d="M52541 37732
L50458 37732
" />
<path d="M52515 37748
L50484 37748
" />
<path d="M52488 37764
L50511 37764
" />
<path d="M52460 37779
L50539 37779
" />
<path d="M52431 37795
L50568 37795
" />
<path d="M52401 37811
L50598 37811
" />
<path d="M52369 37827
L50630 37827
" />
<path d="M52336 37842
L50663 37842
" />
<path d="M52301 37858
L50698 37858
" />
<path d="M52265 37874
L50734 37874
" />
<path d="M52226 37890
L50773 37890
" />
<path d="M52185 37905
L50814 37905
" />
<path d="M52141 37921
L50858 37921
" />
<path d="M52094 37937
L50905 37937
" />
<path d="M52042 37953
L50957 37953
" />
<path d="M51984 37968
L51015 37968
" />
<path d="M51918 37984
L51081 37984
" />
<path d="M51839 38000
L51160 38000
" />
<path d="M51735 38016
L51264 38016
" />
<path d="M52631 33858
L52631 34252
" />
<path d="M52828 34055
L52435 34055
" />
<path d="M67322.8 45499.8 A1177.17 1177.17 0.0 0 0 69507.9 46108.2 " />
<path d="M69507.9 44891.8 A1177.17 1177.17 0.0 0 0 67322.8 45500.2 " />
<circle cx="68500" cy="45500" r="984.252" /> 
<path d="M69507 46108
L69507 44891
" />
<path d="M67322.8 48999.8 A1177.17 1177.17 0.0 0 0 69507.9 49608.2 " />
<path d="M69507.9 48391.8 A1177.17 1177.17 0.0 0 0 67322.8 49000.2 " />
<circle cx="68500" cy="49000" r="984.252" /> 
<path d="M69507 49608
L69507 48391
" />
<path d="M67322.8 52499.8 A1177.17 1177.17 0.0 0 0 69507.9 53108.2 " />
<path d="M69507.9 51891.8 A1177.17 1177.17 0.0 0 0 67322.8 52500.2 " />
<circle cx="68500" cy="52500" r="984.252" /> 
<path d="M69507 53108
L69507 51891
" />
<path d="M51893 32311
L48429 32311
" />
<path d="M48429 32311
L48429 28688
" />
<path d="M54216 31248
L54216 32311
" />
<path d="M54216 32311
L53468 32311
" />
<path d="M48429 28688
L54216 28688
" />
<path d="M54216 28688
L54216 29712
" />
<path d="M54500 43248
L54500 40751
" />
<path d="M51500 43248
L51500 40751
" />
<path d="M51500 42500
L54500 42500
" />
<path d="M54500 43248
L51500 43248
" />
<path d="M51500 40751
L54500 40751
" />
<path d="M59204 47846
L59204 49153
" />
<path d="M59204 49153
L62795 49153
" />
<path d="M62795 49153
L62795 47846
" />
<path d="M62795 47846
L59204 47846
" />
<path d="M57385 48500
L59204 48500
" />
<path d="M64614 48500
L62795 48500
" />
<path d="M59204 49346
L59204 50653
" />
<path d="M59204 50653
L62795 50653
" />
<path d="M62795 50653
L62795 49346
" />
<path d="M62795 49346
L59204 49346
" />
<path d="M57385 50000
L59204 50000
" />
<path d="M64614 50000
L62795 50000
" />
<path d="M59204 50846
L59204 52153
" />
<path d="M59204 52153
L62795 52153
" />
<path d="M62795 52153
L62795 50846
" />
<path d="M62795 50846
L59204 50846
" />
<path d="M57385 51500
L59204 51500
" />
<path d="M64614 51500
L62795 51500
" />
<path d="M75681 52822
L75681 54177
" />
<path d="M75681 54177
L79318 54177
" />
<path d="M79318 54177
L79318 52822
" />
<path d="M79318 52822
L75681 52822
" />
<path d="M73909 53500
L75681 53500
" />
<path d="M81090 53500
L79318 53500
" />
</g>
<g style="fill:#840000; fill-opacity:0.0; 
stroke:#840000; stroke-width:47.2441; stroke-opacity:1; 
stroke-linecap:round; stroke-linejoin:round;">
</g>
<g style="fill:#840000; fill-opacity:0.0; 
stroke:#840000; stroke-width:591; stroke-opacity:1; 
stroke-linecap:round; stroke-linejoin:round;">
<path d="M58000 38362
L58000 38637
" />
<path d="M59000 38362
L59000 38637
" />
<path d="M60000 38362
L60000 38637
" />
<path d="M61000 38362
L61000 38637
" />
<path d="M62000 38362
L62000 38637
" />
<path d="M63000 38362
L63000 38637
" />
<path d="M64000 38362
L64000 38637
" />
<path d="M65000 38362
L65000 38637
" />
<path d="M66000 38362
L66000 38637
" />
<path d="M67000 38362
L67000 38637
" />
<path d="M68000 38362
L68000 38637
" />
<path d="M69000 38362
L69000 38637
" />
<path d="M69000 32362
L69000 32637
" />
<path d="M68000 32362
L68000 32637
" />
<path d="M67000 32362
L67000 32637
" />
<path d="M66000 32362
L66000 32637
" />
<path d="M60000 32362
L60000 32637
" />
<path d="M59000 32362
L59000 32637
" />
<path d="M58000 32362
L58000 32637
" />
<path d="M56862 33000
L57137 33000
" />
<path d="M56862 34000
L57137 34000
" />
<path d="M56862 35000
L57137 35000
" />
<path d="M56862 36000
L57137 36000
" />
<path d="M56862 37000
L57137 37000
" />
<path d="M56862 38000
L57137 38000
" />
</g> 
</svg>
